<svg width="265" height="265" viewBox="0 0 265 265" fill="none" xmlns="http://www.w3.org/2000/svg">
<path d="M193.419 138.633C193.315 120.984 201.312 107.682 217.46 97.874C208.429 84.9346 194.765 77.8179 176.753 76.4463C159.699 75.1006 141.04 86.3838 134.208 86.3838C126.988 86.3838 110.477 76.9121 97.4858 76.9121C70.6753 77.3262 42.1826 98.2881 42.1826 140.937C42.1826 153.54 44.4858 166.557 49.0923 179.962C55.2515 197.611 77.4556 240.855 100.617 240.156C112.729 239.872 121.294 231.564 137.055 231.564C152.349 231.564 160.268 240.156 173.777 240.156C197.146 239.82 217.228 200.51 223.076 182.809C191.737 168.032 193.419 139.539 193.419 138.633V138.633ZM166.22 59.7026C179.341 44.1235 178.15 29.9419 177.762 24.8438C166.168 25.5166 152.763 32.7368 145.129 41.6133C136.718 51.1367 131.775 62.9116 132.836 76.1875C145.362 77.145 156.8 70.7012 166.22 59.7026V59.7026Z" fill="#D6D6D6"/>
</svg>
