<svg width="265" height="265" viewBox="0 0 265 265" fill="none" xmlns="http://www.w3.org/2000/svg">
<path d="M206.111 220.833H117.778V161.944H103.056V220.833H58.889V161.944H44.1667V220.833C44.1667 224.738 45.7178 228.483 48.4788 231.244C51.2397 234.004 54.9844 235.556 58.889 235.556H206.111C210.016 235.556 213.76 234.004 216.521 231.244C219.282 228.483 220.833 224.738 220.833 220.833V161.944H206.111V220.833Z" fill="#D6D6D6"/>
<path d="M248.732 97.6819L218.699 37.6153C217.48 35.1625 215.601 33.0983 213.273 31.6548C210.945 30.2114 208.261 29.4459 205.522 29.4444H59.4778C56.7389 29.4459 54.0546 30.2114 51.7269 31.6548C49.3992 33.0983 47.5203 35.1625 46.3014 37.6153L16.2681 97.6819C15.2427 99.7393 14.7133 102.008 14.7223 104.307V126.979C14.7156 130.419 15.9136 133.753 18.1084 136.401C21.3521 140.12 25.3583 143.096 29.8548 145.128C34.3512 147.161 39.2324 148.201 44.1667 148.179C52.2181 148.192 60.0239 145.408 66.2501 140.303C72.4762 145.41 80.2803 148.202 88.3334 148.202C96.3865 148.202 104.191 145.41 110.417 140.303C116.643 145.41 124.447 148.202 132.5 148.202C140.553 148.202 148.357 145.41 154.583 140.303C160.809 145.41 168.614 148.202 176.667 148.202C184.72 148.202 192.524 145.41 198.75 140.303C205.7 146.009 214.592 148.799 223.556 148.085C232.52 147.371 240.859 143.21 246.818 136.475C249.039 133.836 250.264 130.502 250.278 127.053V104.307C250.287 102.008 249.757 99.7393 248.732 97.6819ZM220.833 133.457C217.689 133.45 214.592 132.691 211.801 131.244C209.01 129.797 206.605 127.704 204.786 125.139L198.75 116.894L192.788 125.139C190.935 127.664 188.513 129.718 185.719 131.134C182.924 132.549 179.836 133.287 176.704 133.287C173.571 133.287 170.483 132.549 167.688 131.134C164.894 129.718 162.472 127.664 160.62 125.139L154.583 116.894L148.621 125.139C146.768 127.664 144.346 129.718 141.552 131.134C138.758 132.549 135.669 133.287 132.537 133.287C129.404 133.287 126.316 132.549 123.522 131.134C120.727 129.718 118.306 127.664 116.453 125.139L110.417 116.894L104.454 125.139C102.601 127.664 100.18 129.718 97.3853 131.134C94.591 132.549 91.5026 133.287 88.3702 133.287C85.2378 133.287 82.1494 132.549 79.3551 131.134C76.5608 129.718 74.1391 127.664 72.2862 125.139L66.2501 116.894L60.2139 125.139C58.3955 127.704 55.9904 129.797 53.199 131.244C50.4076 132.691 47.3108 133.45 44.1667 133.457C41.3926 133.491 38.6434 132.93 36.104 131.813C33.5646 130.695 31.2939 129.047 29.4445 126.979V104.307L59.4778 44.1667H205.522L235.556 104.233V126.758C233.717 128.855 231.454 130.537 228.916 131.692C226.377 132.847 223.622 133.449 220.833 133.457V133.457Z" fill="#D6D6D6"/>
</svg>
