<svg width="191" height="155" viewBox="0 0 191 155" fill="none" xmlns="http://www.w3.org/2000/svg">
<path d="M190.025 19.1417C183.067 22.225 175.592 24.3083 167.733 25.25C175.842 20.3983 181.908 12.7622 184.8 3.76666C177.182 8.29158 168.845 11.4766 160.15 13.1833C154.303 6.94054 146.559 2.80271 138.119 1.41228C129.68 0.0218442 121.017 1.45659 113.477 5.49377C105.936 9.53095 99.9398 15.9447 96.4179 23.7392C92.8961 31.5337 92.0461 40.2729 94 48.6C78.5641 47.825 63.4636 43.8129 49.6785 36.8242C35.8935 29.8355 23.732 20.0263 13.9833 8.03333C10.65 13.7833 8.73333 20.45 8.73333 27.55C8.72962 33.9416 10.3036 40.2354 13.3157 45.8728C16.3277 51.5102 20.6847 56.317 26 59.8667C19.8356 59.6705 13.8073 58.0049 8.41667 55.0083V55.5083C8.41605 64.4728 11.5169 73.1615 17.1932 80.1C22.8694 87.0385 30.7714 91.7994 39.5583 93.575C33.8399 95.1226 27.8445 95.3506 22.025 94.2417C24.5041 101.955 29.3333 108.7 35.8364 113.533C42.3395 118.365 50.191 121.043 58.2917 121.192C44.5403 131.987 27.5574 137.842 10.075 137.817C6.97818 137.818 3.88397 137.637 0.808334 137.275C18.554 148.685 39.2112 154.74 60.3083 154.717C131.725 154.717 170.767 95.5667 170.767 44.2667C170.767 42.6 170.725 40.9167 170.65 39.25C178.244 33.7581 184.799 26.9575 190.008 19.1667L190.025 19.1417V19.1417Z" fill="#F8F8F8"/>
</svg>
